<?xml version="1.0" encoding="utf-8"?>
<!DOCTYPE svg PUBLIC "-//W3C//DTD SVG 1.1//EN" "http://www.w3.org/Graphics/SVG/1.1/DTD/svg11.dtd">
<svg version="1.1" id="Layer_1" xmlns="http://www.w3.org/2000/svg" xmlns:xlink="http://www.w3.org/1999/xlink" x="0px" y="0px"
	 width="150px" height="75px" viewBox="0 0 150 75" enable-background="new 0 0 150 75" xml:space="preserve">
<g enable-background="new    ">
	<path fill="#616262" d="M26.497,27.783h-6.948l-5.007-7.64l-5.11,7.64H2.8l8.254-11.726L2.972,4.507h6.929l4.841,7.247l4.979-7.247
		h6.651L18.25,15.813L26.497,27.783z"/>
	<path fill="#616262" d="M48.053,9.009h-7.269v18.773h-6.002V9.009h-7.269V4.507h20.54V9.009z"/>
	<path fill="#616262" d="M74.079,27.783h-7.331l-6.332-8.535h-2.781v8.535h-5.971V4.507H61.73c1.375,0,2.558,0.078,3.548,0.234
		c0.99,0.156,1.917,0.495,2.782,1.017c0.875,0.521,1.571,1.195,2.087,2.024c0.516,0.828,0.773,1.867,0.773,3.118
		c0,1.72-0.398,3.121-1.196,4.205c-0.797,1.084-1.936,1.985-3.415,2.704L74.079,27.783z M64.715,11.635
		c0-0.583-0.12-1.083-0.359-1.5S63.705,9.39,63.121,9.15c-0.406-0.166-0.881-0.268-1.422-0.305
		c-0.542-0.036-1.172-0.055-1.892-0.055h-2.173v6.269h1.845c0.958,0,1.761-0.047,2.407-0.141c0.646-0.094,1.188-0.308,1.625-0.642
		c0.417-0.322,0.722-0.68,0.915-1.07S64.715,12.292,64.715,11.635z"/>
	<path fill="#616262" d="M93.54,27.783H76.705V4.507H93.54v4.502H82.676v4.018h10.082v4.502H82.676v5.752H93.54V27.783z"/>
	<path fill="#616262" d="M122.974,27.783h-5.971V12.199l-4.314,10.113h-4.143l-4.313-10.113v15.584h-5.659V4.507h6.972l5.236,11.677
		l5.221-11.677h6.972V27.783z"/>
	<path fill="#616262" d="M145.748,27.783h-16.835V4.507h16.835v4.502h-10.863v4.018h10.082v4.502h-10.082v5.752h10.863V27.783z"/>
</g>
<g enable-background="new    ">
	<path fill="#616262" d="M64.563,47.473c0,0.844-0.196,1.676-0.588,2.498c-0.392,0.824-0.941,1.52-1.648,2.092
		c-0.775,0.619-1.677,1.104-2.708,1.451c-1.031,0.35-2.272,0.523-3.725,0.523c-1.559,0-2.96-0.145-4.204-0.436
		s-2.51-0.721-3.797-1.293v-3.602h0.204c1.094,0.91,2.357,1.613,3.79,2.105c1.433,0.494,2.778,0.742,4.037,0.742
		c1.781,0,3.168-0.334,4.161-1.002c0.992-0.668,1.488-1.559,1.488-2.672c0-0.959-0.235-1.666-0.704-2.121
		c-0.47-0.455-1.184-0.809-2.142-1.061c-0.726-0.193-1.513-0.354-2.36-0.479s-1.745-0.285-2.693-0.479
		c-1.917-0.408-3.338-1.102-4.262-2.084c-0.925-0.982-1.387-2.264-1.387-3.841c0-1.811,0.765-3.294,2.294-4.451
		c1.529-1.156,3.471-1.735,5.823-1.735c1.52,0,2.914,0.146,4.183,0.436c1.268,0.291,2.391,0.648,3.369,1.075v3.397h-0.203
		c-0.823-0.697-1.905-1.275-3.246-1.735s-2.713-0.689-4.117-0.689c-1.54,0-2.776,0.319-3.71,0.958
		c-0.934,0.64-1.401,1.462-1.401,2.469c0,0.901,0.232,1.608,0.697,2.12c0.464,0.514,1.283,0.906,2.454,1.178
		c0.619,0.135,1.5,0.299,2.643,0.492c1.142,0.195,2.11,0.393,2.904,0.596c1.606,0.426,2.817,1.07,3.63,1.932
		C64.156,44.719,64.563,45.924,64.563,47.473z"/>
	<path fill="#616262" d="M84.603,34.579h-7.726v19.066h-2.875V34.579h-7.726v-2.556h18.326V34.579z"/>
	<path fill="#616262" d="M102.899,34.505c0.881,0.969,1.556,2.154,2.026,3.557c0.469,1.404,0.704,2.998,0.704,4.779
		s-0.239,3.375-0.72,4.783c-0.479,1.41-1.148,2.584-2.011,3.521c-0.891,0.979-1.943,1.715-3.158,2.209
		c-1.215,0.492-2.603,0.74-4.161,0.74c-1.52,0-2.901-0.252-4.145-0.756c-1.244-0.504-2.303-1.234-3.174-2.193
		c-0.871-0.957-1.541-2.135-2.012-3.527c-0.469-1.395-0.703-2.986-0.703-4.777c0-1.762,0.232-3.344,0.697-4.742
		c0.464-1.399,1.142-2.597,2.032-3.594c0.853-0.948,1.909-1.675,3.173-2.178s2.641-0.755,4.131-0.755
		c1.549,0,2.941,0.254,4.176,0.762C100.99,32.843,102.038,33.567,102.899,34.505z M102.639,42.842c0-2.809-0.63-4.974-1.889-6.5
		c-1.258-1.524-2.977-2.287-5.154-2.287c-2.198,0-3.924,0.763-5.178,2.287c-1.254,1.525-1.88,3.691-1.88,6.5
		c0,2.836,0.639,5.008,1.917,6.512c1.277,1.506,2.991,2.258,5.141,2.258c2.148,0,3.859-0.752,5.133-2.258
		C102.002,47.85,102.639,45.678,102.639,42.842z"/>
	<path fill="#616262" d="M128.08,53.645h-3.732l-7.231-8.596h-4.052v8.596h-2.875V32.023h6.056c1.307,0,2.396,0.084,3.267,0.254
		c0.871,0.169,1.656,0.472,2.353,0.907c0.784,0.494,1.396,1.116,1.838,1.866c0.44,0.75,0.66,1.701,0.66,2.854
		c0,1.559-0.392,2.864-1.176,3.913c-0.784,1.051-1.864,1.844-3.239,2.375L128.08,53.645z M121.356,38.107
		c0-0.62-0.108-1.169-0.327-1.649c-0.217-0.479-0.578-0.883-1.082-1.212c-0.416-0.281-0.91-0.477-1.48-0.589
		c-0.571-0.11-1.244-0.167-2.019-0.167h-3.384v8.162h2.904c0.91,0,1.704-0.08,2.382-0.24c0.677-0.16,1.253-0.457,1.728-0.893
		c0.436-0.406,0.758-0.873,0.966-1.4C121.252,39.59,121.356,38.92,121.356,38.107z"/>
	<path fill="#616262" d="M145.113,53.645h-14.245V32.023h14.245v2.556h-11.37v5.925h11.37v2.555h-11.37v8.031h11.37V53.645z"/>
</g>
<g enable-background="new    ">
	<path fill="#9D9D9D" d="M94.02,64.566h-7.554c0,0.631,0.095,1.18,0.284,1.646c0.189,0.469,0.45,0.854,0.781,1.152
		c0.317,0.295,0.695,0.514,1.133,0.662c0.438,0.146,0.92,0.219,1.445,0.219c0.697,0,1.4-0.139,2.106-0.418
		c0.706-0.277,1.21-0.551,1.51-0.82h0.092v1.881c-0.581,0.246-1.175,0.449-1.78,0.615s-1.242,0.248-1.909,0.248
		c-1.701,0-3.028-0.461-3.983-1.381c-0.954-0.922-1.432-2.229-1.432-3.924c0-1.676,0.457-3.008,1.372-3.992s2.118-1.479,3.612-1.479
		c1.382,0,2.448,0.404,3.197,1.213c0.75,0.807,1.125,1.953,1.125,3.441V64.566z M92.34,63.244c-0.006-0.904-0.234-1.605-0.684-2.102
		c-0.449-0.494-1.134-0.742-2.051-0.742c-0.925,0-1.66,0.271-2.208,0.816s-0.858,1.221-0.932,2.027H92.34z"/>
	<path fill="#9D9D9D" d="M105.207,69.514h-1.726v-5.838c0-0.471-0.027-0.912-0.083-1.326c-0.055-0.412-0.156-0.734-0.303-0.969
		c-0.152-0.256-0.373-0.447-0.66-0.572c-0.288-0.125-0.661-0.189-1.12-0.189c-0.472,0-0.964,0.117-1.478,0.35
		s-1.006,0.529-1.478,0.891v7.654h-1.726V59.262h1.726V60.4c0.538-0.447,1.095-0.797,1.671-1.047
		c0.574-0.25,1.165-0.377,1.771-0.377c1.107,0,1.952,0.334,2.533,1c0.581,0.668,0.872,1.629,0.872,2.883V69.514z"/>
	<path fill="#9D9D9D" d="M116.844,68.348c0,1.738-0.395,3.014-1.184,3.826c-0.789,0.814-2.004,1.221-3.643,1.221
		c-0.545,0-1.076-0.037-1.593-0.113c-0.517-0.078-1.026-0.186-1.528-0.326v-1.762h0.092c0.281,0.109,0.729,0.246,1.34,0.408
		s1.224,0.242,1.836,0.242c0.587,0,1.074-0.07,1.459-0.211s0.686-0.336,0.899-0.588c0.214-0.238,0.367-0.525,0.459-0.861
		c0.092-0.338,0.138-0.713,0.138-1.129v-0.936c-0.52,0.416-1.018,0.727-1.492,0.93c-0.474,0.205-1.078,0.309-1.813,0.309
		c-1.223,0-2.194-0.441-2.914-1.326c-0.719-0.885-1.078-2.131-1.078-3.74c0-0.881,0.125-1.641,0.372-2.281
		c0.248-0.639,0.586-1.191,1.015-1.656c0.397-0.434,0.881-0.771,1.449-1.014c0.569-0.242,1.135-0.363,1.698-0.363
		c0.593,0,1.091,0.061,1.491,0.18s0.824,0.301,1.271,0.547l0.109-0.441h1.615V68.348z M115.119,66.695v-5.59
		c-0.459-0.207-0.886-0.355-1.28-0.443c-0.395-0.09-0.788-0.135-1.18-0.135c-0.948,0-1.694,0.318-2.239,0.955
		s-0.816,1.561-0.816,2.771c0,1.15,0.201,2.023,0.605,2.615c0.404,0.594,1.074,0.891,2.01,0.891c0.502,0,1.005-0.096,1.51-0.289
		C114.233,67.279,114.697,67.02,115.119,66.695z"/>
	<path fill="#9D9D9D" d="M122.094,57.545h-1.945v-1.789h1.945V57.545z M121.983,69.514h-1.726V59.262h1.726V69.514z"/>
	<path fill="#9D9D9D" d="M133.971,69.514h-1.727v-5.838c0-0.471-0.027-0.912-0.082-1.326c-0.055-0.412-0.156-0.734-0.303-0.969
		c-0.153-0.256-0.373-0.447-0.661-0.572s-0.661-0.189-1.12-0.189c-0.471,0-0.963,0.117-1.477,0.35
		c-0.515,0.232-1.007,0.529-1.479,0.891v7.654h-1.725V59.262h1.725V60.4c0.539-0.447,1.096-0.797,1.671-1.047
		s1.165-0.377,1.771-0.377c1.107,0,1.952,0.334,2.533,1c0.582,0.668,0.873,1.629,0.873,2.883V69.514z"/>
	<path fill="#9D9D9D" d="M145.873,64.566h-7.553c0,0.631,0.095,1.18,0.284,1.646c0.189,0.469,0.45,0.854,0.78,1.152
		c0.318,0.295,0.695,0.514,1.133,0.662c0.438,0.146,0.92,0.219,1.445,0.219c0.698,0,1.4-0.139,2.107-0.418
		c0.706-0.277,1.209-0.551,1.51-0.82h0.092v1.881c-0.582,0.246-1.176,0.449-1.781,0.615s-1.242,0.248-1.908,0.248
		c-1.701,0-3.029-0.461-3.983-1.381c-0.954-0.922-1.433-2.229-1.433-3.924c0-1.676,0.458-3.008,1.373-3.992
		c0.914-0.984,2.118-1.479,3.611-1.479c1.383,0,2.449,0.404,3.198,1.213c0.749,0.807,1.124,1.953,1.124,3.441V64.566z
		 M144.193,63.244c-0.006-0.904-0.233-1.605-0.684-2.102c-0.449-0.494-1.133-0.742-2.051-0.742c-0.924,0-1.66,0.271-2.207,0.816
		c-0.548,0.545-0.858,1.221-0.932,2.027H144.193z"/>
</g>
</svg>